 <svg  version="1.0" xmlns="http://www.w3.org/2000/svg"  width="300.000000pt" height="51.000000pt" viewBox="0 0 300.000000 51.000000"  preserveAspectRatio="xMidYMid meet">  <g transform="translate(0.000000,51.000000) scale(0.100000,-0.100000)" fill="#ff0000" stroke="none"> <path d="M20 492 c-20 -16 -21 -21 -11 -41 10 -18 19 -22 53 -19 55 4 73 31 39 59 -29 24 -52 24 -81 1z"/> <path d="M433 304 c-33 -98 -62 -183 -64 -189 -2 -5 0 -11 6 -13 5 -2 21 33 35 77 14 43 28 82 32 86 3 4 28 -32 54 -79 26 -47 51 -86 54 -86 4 0 26 43 49 95 24 52 47 95 51 95 4 0 20 -43 36 -95 l29 -95 69 0 c50 0 67 3 64 13 -3 6 -31 90 -63 185 -32 94 -61 172 -64 172 -4 0 -30 -48 -60 -107 l-53 -108 -58 115 -57 114 -60 -180z"/> <path d="M210 285 l0 -185 50 0 50 0 0 169 c0 93 3 176 6 185 5 13 -3 16 -50 16 l-56 0 0 -185z"/> <path d="M1471 394 c-16 -12 -40 -17 -72 -15 -112 5 -176 -84 -113 -158 l25 -31 -27 -23 c-21 -18 -26 -29 -21 -49 8 -31 40 -46 121 -54 35 -4 70 -10 77 -15 43 -28 -95 -40 -158 -14 -20 8 -38 13 -41 11 -10 -11 11 -24 52 -35 120 -30 230 13 212 83 -8 31 -23 36 -126 50 -47 6 -84 16 -83 21 2 6 35 12 74 15 64 5 73 8 100 38 39 43 39 84 0 123 -28 28 -29 30 -10 39 11 6 26 10 33 8 8 -2 16 2 18 7 5 17 -36 16 -61 -1z m-11 -49 c53 -28 54 -97 1 -132 -63 -42 -71 -35 -71 62 0 79 1 85 20 85 12 0 34 -7 50 -15z"/> <path d="M10 241 l0 -141 55 0 56 0 -3 138 -3 137 -52 3 -53 3 0 -140z"/> <path d="M963 369 c-19 -5 -33 -16 -33 -25 0 -13 3 -13 30 1 16 8 52 15 80 15 l50 0 0 -36 0 -37 -44 6 c-88 12 -156 -30 -156 -98 0 -66 73 -115 148 -99 20 4 63 6 95 5 l57 -3 0 107 c0 58 -4 114 -10 124 -22 42 -138 63 -217 40z m108 -99 c15 -9 19 -22 19 -70 0 -50 -4 -61 -22 -74 -12 -9 -30 -16 -40 -16 -16 0 -18 10 -18 85 0 79 1 85 21 85 11 0 29 -5 40 -10z"/> <path d="M1598 373 c-2 -5 -2 -68 0 -140 l3 -133 50 0 49 0 0 104 c0 101 1 105 26 125 15 12 35 21 45 21 18 0 19 -10 19 -125 l0 -125 56 0 56 0 -4 121 c-3 113 -5 122 -27 140 -30 25 -87 24 -129 -1 -40 -25 -42 -25 -42 0 0 17 -7 20 -49 20 -28 0 -51 -3 -53 -7z"/> <path d="M2040 363 c-68 -35 -94 -133 -54 -201 10 -18 38 -42 62 -53 108 -53 219 24 209 144 -3 40 -11 56 -40 85 -30 30 -44 36 -89 39 -38 3 -63 -1 -88 -14z m161 -31 c25 -23 33 -38 36 -78 8 -83 -39 -144 -112 -144 l-25 0 0 125 0 125 35 0 c24 0 44 -9 66 -28z"/> <path d="M2330 240 l0 -140 55 0 55 0 0 103 c0 95 2 105 23 125 13 12 33 22 45 22 21 0 22 -3 22 -125 l0 -125 55 0 55 0 0 93 c0 108 -13 162 -42 178 -32 17 -105 5 -134 -22 l-24 -22 0 26 c0 26 -2 27 -55 27 l-55 0 0 -140z"/> <path d="M2781 363 c-47 -24 -72 -62 -78 -114 -9 -93 71 -166 169 -155 52 6 98 30 98 53 0 11 -9 7 -31 -11 -23 -19 -42 -26 -75 -26 l-44 0 0 60 0 60 90 0 c74 0 90 3 90 15 0 28 -27 79 -54 104 -35 33 -117 40 -165 14z m119 -64 l0 -60 -37 3 -38 3 -3 58 -3 57 41 0 40 0 0 -61z"/> </g> </svg> 