<?xml version="1.0" standalone="no"?>
<!DOCTYPE svg PUBLIC "-//W3C//DTD SVG 20010904//EN"
 "http://www.w3.org/TR/2001/REC-SVG-20010904/DTD/svg10.dtd">
<svg version="1.0" xmlns="http://www.w3.org/2000/svg"
 width="300.000000pt" height="51.000000pt" viewBox="0 0 300.000000 51.000000"
 preserveAspectRatio="xMidYMid meet">
<metadata>
Created by potrace 1.10, written by Peter Selinger 2001-2011
</metadata>
<g transform="translate(0.000000,51.000000) scale(0.100000,-0.100000)"
fill="#000000" stroke="none">
<path d="M20 492 c-45 -36 13 -85 73 -63 37 14 38 57 1 71 -36 14 -49 13 -74
-8z m58 -20 c2 -7 -7 -12 -23 -12 -24 0 -26 2 -15 15 14 17 31 16 38 -3z"/>
<path d="M432 308 c-35 -100 -66 -191 -69 -200 -3 -12 0 -18 9 -18 10 0 24 30
42 90 16 50 30 90 31 90 2 0 25 -40 52 -90 26 -49 50 -90 53 -90 3 0 25 45 50
100 25 55 47 100 50 100 3 0 18 -45 35 -100 l29 -100 74 0 c67 0 73 2 67 17
-4 10 -35 100 -70 201 l-63 183 -56 -117 -56 -117 -58 118 -57 117 -63 -184z
m117 8 c40 -73 40 -75 26 -110 -9 -20 -19 -36 -24 -36 -13 0 -85 113 -83 133
2 30 23 87 32 87 4 0 27 -33 49 -74z m181 62 c0 -7 15 -53 34 -103 18 -50 36
-102 40 -117 6 -26 4 -28 -28 -28 -32 0 -36 3 -52 48 -9 26 -25 66 -36 88 -18
40 -18 44 -2 83 15 38 44 57 44 29z"/>
<path d="M200 280 l0 -190 60 0 60 0 0 190 0 190 -60 0 -60 0 0 -190z m80 98
c2 -267 4 -248 -19 -248 -16 0 -20 10 -25 63 -3 34 -4 87 -2 117 2 30 4 72 5
93 1 30 5 37 21 37 18 0 20 -7 20 -62z"/>
<path d="M1464 395 c-11 -8 -42 -14 -76 -15 -50 0 -62 -4 -93 -31 -29 -26 -35
-38 -35 -70 0 -29 7 -47 24 -64 l24 -24 -24 -16 c-33 -21 -33 -69 0 -91 14 -8
59 -19 100 -23 79 -7 100 -16 76 -31 -24 -15 -106 -12 -150 6 -23 9 -44 13
-48 9 -13 -13 30 -34 83 -40 107 -14 185 19 185 75 0 42 -32 58 -131 67 -50 5
-82 12 -79 18 3 6 24 9 48 7 90 -6 152 37 152 108 0 26 -7 43 -25 60 -34 32
-32 40 10 40 24 0 35 5 35 15 0 20 -50 20 -76 0z m14 -71 c12 -14 22 -36 22
-50 0 -26 -43 -74 -66 -74 -7 0 -19 -3 -28 -6 -14 -5 -16 6 -16 81 l0 88 33
-7 c17 -3 42 -17 55 -32z m-118 -50 c0 -49 -3 -64 -14 -64 -19 0 -56 48 -56
72 0 23 46 72 60 63 6 -3 10 -35 10 -71z m24 -154 c53 0 97 -12 103 -27 8 -21
-1 -25 -32 -13 -15 6 -50 12 -77 15 -47 4 -78 18 -78 36 0 5 12 4 26 -1 14 -6
40 -10 58 -10z"/>
<path d="M8 235 l3 -145 55 0 54 0 0 145 0 145 -57 0 -58 0 3 -145z m77 7 c0
-108 -7 -125 -46 -115 -17 5 -19 16 -19 107 0 57 3 106 7 110 4 4 19 6 33 4
25 -3 25 -3 25 -106z"/>
<path d="M948 364 c-27 -14 -38 -34 -19 -34 5 0 22 7 37 15 16 8 48 15 70 15
40 0 42 -1 46 -35 l4 -35 -45 6 c-85 11 -151 -33 -151 -98 0 -22 5 -48 10 -59
22 -41 114 -64 160 -39 13 7 21 7 25 0 3 -5 31 -10 61 -10 l54 0 0 95 c0 118
-15 160 -64 180 -46 19 -153 19 -188 -1z m203 -50 c14 -17 22 -110 13 -157 -4
-18 -12 -27 -25 -27 -22 0 -21 -4 -24 73 -2 32 -5 61 -8 64 -7 7 13 63 23 63
4 0 14 -7 21 -16z m-92 -43 c23 -6 25 -10 22 -71 -3 -72 -4 -76 -43 -85 l-28
-7 0 86 c0 91 0 91 49 77z m-79 -69 c0 -64 -10 -78 -38 -52 -28 26 -28 64 -2
90 28 28 40 17 40 -38z"/>
<path d="M1590 235 l0 -145 60 0 60 0 0 108 c0 100 2 110 23 130 13 12 31 22
40 22 15 0 17 -15 17 -130 l0 -130 55 0 55 0 0 119 c0 105 -2 121 -21 145 -17
22 -29 26 -68 26 -33 0 -56 -6 -74 -20 -14 -11 -27 -20 -30 -20 -3 0 -3 9 0
20 5 18 0 20 -56 20 l-61 0 0 -145z m84 109 c9 -3 14 -9 12 -13 -3 -4 -6 -43
-7 -86 -3 -99 -7 -115 -30 -115 -21 0 -21 2 -25 105 -4 111 4 127 50 109z
m180 -12 c13 -15 16 -36 14 -108 -3 -81 -5 -89 -23 -89 -19 0 -20 8 -23 108
-1 59 1 107 6 107 5 0 16 -8 26 -18z"/>
<path d="M2029 357 c-89 -59 -89 -185 0 -244 65 -44 171 -23 211 42 24 39 27
113 5 156 -36 68 -147 92 -216 46z m167 -30 c29 -26 37 -42 40 -77 3 -26 -1
-55 -8 -70 -16 -30 -74 -70 -102 -70 -20 0 -21 5 -21 125 l0 125 28 0 c17 0
41 -12 63 -33z m-118 -75 c3 -91 -5 -119 -31 -109 -59 23 -64 141 -8 184 31
24 36 13 39 -75z"/>
<path d="M2330 235 l0 -145 55 0 55 0 0 109 c0 106 1 110 26 130 55 43 59 35
56 -109 l-3 -130 61 0 62 0 -4 126 c-3 118 -4 127 -27 145 -35 29 -102 26
-140 -7 l-31 -26 0 26 c0 25 -2 26 -55 26 l-55 0 0 -145z m84 93 c0 -10 -1
-58 -2 -108 -2 -81 -4 -90 -21 -90 -10 0 -22 7 -25 16 -8 22 -8 189 1 198 14
13 48 1 47 -16z m180 0 c11 -17 14 -44 12 -98 -5 -103 -4 -100 -25 -100 -25 0
-29 15 -30 128 -1 75 2 92 14 92 8 0 21 -10 29 -22z"/>
<path d="M2785 370 c-11 -4 -33 -22 -50 -40 -27 -28 -30 -38 -30 -95 0 -54 4
-67 25 -90 37 -39 73 -55 128 -55 34 0 59 7 82 23 38 25 50 47 26 47 -9 0 -16
-4 -16 -10 0 -17 -60 -41 -93 -38 -32 3 -32 3 -32 58 l0 55 35 1 c19 0 58 1
87 2 l52 2 -6 38 c-8 51 -19 70 -56 92 -34 21 -114 26 -152 10z m115 -65 l0
-55 -39 0 -39 0 1 55 1 55 38 0 38 0 0 -55z m-106 -28 c8 -49 -2 -127 -15
-127 -5 0 -18 15 -30 33 -23 37 -19 99 8 129 21 24 30 16 37 -35z m166 12 c13
-24 8 -34 -15 -26 -16 7 -21 47 -5 47 5 0 14 -9 20 -21z"/>
</g>
</svg>
