<svg width="836" height="141" viewBox="0 0 836 141" fill="none" xmlns="http://www.w3.org/2000/svg">
<g filter="url(#filter0_i_24_13)">
<path d="M16.6357 23.96C11.6064 23.96 7.67578 22.8369 4.84375 20.5908C2.01172 18.3447 0.595703 15.3906 0.595703 11.7285C0.595703 8.65234 2.1582 6.01562 5.2832 3.81836C8.60352 1.47461 12.1191 0.302734 15.8301 0.302734C19.541 0.302734 22.3975 0.668945 24.3994 1.40137C26.4502 2.13379 28.1836 3.08594 29.5996 4.25781C32.4316 6.65039 33.8477 9.43359 33.8477 12.6074C33.8477 15.7812 32.2363 18.4668 29.0137 20.6641C25.791 22.8613 21.665 23.96 16.6357 23.96ZM1.25488 36.7773H32.749V115H1.25488V36.7773ZM56.7725 11.3623H88.2666V115H56.7725V11.3623ZM103.354 116.099C102.427 116.001 101.719 115.586 101.23 114.854C100.742 114.121 100.547 113.315 100.645 112.437C100.889 110.923 101.353 109.531 102.036 108.262C102.72 106.992 103.208 106.04 103.501 105.405C103.843 104.771 104.185 104.062 104.526 103.281L107.31 96.8359L137.412 6.6748L169.785 69.2236L201.206 6.6748L238.779 115H199.448L181.284 59.043L153.159 117.637L123.569 64.9023L113.315 96.9092C111.704 100.474 110.557 103.501 109.873 105.991C109.189 108.481 108.628 110.41 108.188 111.777C107.212 114.854 105.601 116.294 103.354 116.099ZM302.207 110.166C295.957 114.316 289.023 116.392 281.406 116.392C271.299 116.392 263.193 113.853 257.09 108.774C250.742 103.55 247.568 96.2988 247.568 87.0215C247.568 78.8184 250.718 72.0801 257.017 66.8066C263.462 61.4844 271.934 58.8232 282.432 58.8232C289.463 58.8232 296.055 60.166 302.207 62.8516V42.71C297.764 41.4404 293.833 40.8057 290.415 40.8057C287.046 40.8057 284.189 40.9521 281.846 41.2451C279.502 41.5381 277.28 41.9775 275.181 42.5635C270.64 43.833 267.197 45.542 264.854 47.6904C263.486 48.96 262.241 49.5947 261.118 49.5947C259.995 49.5947 259.141 49.3262 258.555 48.7891C257.969 48.2031 257.676 47.5684 257.676 46.8848C257.676 46.2012 257.798 45.5908 258.042 45.0537C258.286 44.4678 258.75 43.8818 259.434 43.2959C260.898 42.0264 263.34 40.7568 266.758 39.4873C273.838 36.8018 280.942 35.459 288.071 35.459C309.751 35.459 323.594 40.6348 329.6 50.9863C332.236 55.5762 333.555 61.6064 333.555 69.0771V115H302.207V110.166ZM302.207 68.5645C296.055 65.5859 289.927 64.0967 283.823 64.0967C282.847 64.0967 281.919 64.1699 281.04 64.3164V110.898C281.284 110.947 281.553 110.972 281.846 110.972C282.139 110.972 282.432 110.972 282.725 110.972C289.414 110.972 295.908 108.604 302.207 103.867V68.5645ZM372.446 91.123C368.101 92.4414 365.928 93.8818 365.928 95.4443C365.928 96.958 367.197 98.0078 369.736 98.5938C374.668 99.7656 381.455 100.474 390.098 100.718C398.74 100.913 405.234 101.572 409.58 102.695C413.975 103.77 417.466 105.137 420.054 106.797C424.741 109.873 427.085 113.95 427.085 119.028C427.085 125.376 423.936 130.527 417.637 134.482C410.654 138.828 400.815 141.001 388.12 141.001C374.985 141.001 364.146 139.048 355.601 135.142C352.524 133.628 350.986 131.919 350.986 130.015C350.986 129.185 351.279 128.525 351.865 128.037C352.5 127.549 353.159 127.305 353.843 127.305C354.673 127.305 355.625 127.622 356.699 128.257C359.189 129.673 361.484 130.845 363.584 131.772C365.732 132.749 369.077 133.677 373.618 134.556C378.159 135.435 382.529 135.874 386.729 135.874C390.977 135.874 394.419 135.679 397.056 135.288C399.741 134.946 401.963 134.531 403.721 134.043C407.188 133.018 408.921 131.87 408.921 130.601C408.921 129.429 408.579 128.574 407.896 128.037C407.212 127.5 406.309 127.012 405.186 126.572C404.111 126.182 402.598 125.815 400.645 125.474C396.641 124.79 391.196 124.277 384.312 123.936C377.427 123.594 371.982 122.91 367.979 121.885C363.975 120.908 360.703 119.639 358.164 118.076C353.232 115.098 350.767 111.069 350.767 105.991C350.767 98.667 355.723 92.7344 365.635 88.1934C361.094 85.7031 357.48 82.4316 354.795 78.3789C352.109 74.2773 350.767 69.8584 350.767 65.1221C350.767 60.3369 351.646 56.2109 353.403 52.7441C355.21 49.2285 357.725 46.2012 360.947 43.6621C367.734 38.1934 376.499 35.459 387.241 35.459C392.026 35.459 396.836 36.1914 401.67 37.6562C408.604 30.9668 415.024 27.6221 420.933 27.6221C423.423 27.6221 425.254 28.0371 426.426 28.8672C427.646 29.6973 428.257 30.7471 428.257 32.0166C428.257 33.2861 427.842 34.2139 427.012 34.7998C426.182 35.3369 425.4 35.6055 424.668 35.6055C423.35 35.6055 422.227 35.459 421.299 35.166C419.932 34.6777 418.54 34.4336 417.124 34.4336C414.487 34.4336 411.167 36.2646 407.163 39.9268C415.122 43.833 420.322 49.4482 422.764 56.7725C423.545 59.2139 423.936 62.2168 423.936 65.7812C423.936 69.2969 422.91 72.8125 420.859 76.3281C418.809 79.8438 416.074 82.8711 412.656 85.4102C405.527 90.6836 397.153 93.3203 387.534 93.3203C382.456 93.418 377.427 92.6855 372.446 91.123ZM387.827 87.9736C395.737 87.876 402.549 85.9473 408.262 82.1875C414.854 77.8906 418.149 72.0801 418.149 64.7559C418.149 57.4316 414.902 51.5234 408.408 47.0312C402.451 42.9297 395.591 40.8057 387.827 40.6592V87.9736ZM498.13 44.7607C496.909 43.9795 495.591 43.5889 494.175 43.5889C492.759 43.5889 491.294 43.9307 489.78 44.6143C488.267 45.249 486.68 46.1523 485.02 47.3242C481.553 49.8145 478.354 53.1348 475.425 57.2852V115H443.931V36.7773H475.425V49.3018C483.774 40.0732 493.223 35.459 503.77 35.459C521.006 35.459 529.624 43.8086 529.624 60.5078V115H498.13V44.7607ZM546.909 75.4492C546.909 69.5898 547.959 64.2676 550.059 59.4824C552.207 54.6484 555.137 50.4492 558.848 46.8848C566.855 39.2676 576.914 35.459 589.023 35.459C601.377 35.459 611.436 39.4141 619.199 47.3242C626.621 54.7949 630.332 64.2432 630.332 75.6689C630.332 87.1436 626.523 96.7383 618.906 104.453C611.045 112.412 600.986 116.392 588.73 116.392C576.768 116.392 566.855 112.607 558.994 105.039C550.938 97.2266 546.909 87.3633 546.909 75.4492ZM586.68 110.898C587.07 110.947 587.461 110.972 587.852 110.972H588.877C598.74 110.972 607.017 107.92 613.706 101.816C620.835 95.2246 624.399 86.582 624.399 75.8887C624.399 65.4395 621.055 56.9678 614.365 50.4736C607.773 44.0283 599.253 40.8057 588.804 40.8057H587.705C587.363 40.8057 587.021 40.8301 586.68 40.8789V110.898ZM703.354 44.7607C702.134 43.9795 700.815 43.5889 699.399 43.5889C697.983 43.5889 696.519 43.9307 695.005 44.6143C693.491 45.249 691.904 46.1523 690.244 47.3242C686.777 49.8145 683.579 53.1348 680.649 57.2852V115H649.155V36.7773H680.649V49.3018C688.999 40.0732 698.447 35.459 708.994 35.459C726.23 35.459 734.849 43.8086 734.849 60.5078V115H703.354V44.7607ZM826.841 97.2021C828.745 97.2021 829.697 98.0811 829.697 99.8389C829.697 101.157 828.843 102.72 827.134 104.526C819.419 112.437 808.848 116.392 795.42 116.392C783.359 116.392 773.203 112.754 764.951 105.479C756.406 97.9102 752.134 88.3398 752.134 76.7676C752.134 64.9512 755.991 55.2344 763.706 47.6172C771.86 39.5117 782.7 35.459 796.226 35.459C807.065 35.459 816.172 38.7549 823.545 45.3467C831.504 52.4268 835.483 61.7285 835.483 73.252C835.483 74.9121 835.435 76.6699 835.337 78.5254H786.997V109.946C790.317 110.63 794.053 110.972 798.203 110.972C806.992 110.972 814.487 108.066 820.688 102.256C821.958 100.986 822.861 99.9854 823.398 99.2529C824.521 97.8857 825.669 97.2021 826.841 97.2021ZM807.285 42.1973C804.111 41.2695 800.522 40.8057 796.519 40.8057C792.515 40.8057 789.341 41.0742 786.997 41.6113V73.1787H807.285V42.1973Z" fill="#F45D01"/>
</g>
<defs>
<filter id="filter0_i_24_13" x="0.595703" y="0.302734" width="834.888" height="144.698" filterUnits="userSpaceOnUse" color-interpolation-filters="sRGB">
<feFlood flood-opacity="0" result="BackgroundImageFix"/>
<feBlend mode="normal" in="SourceGraphic" in2="BackgroundImageFix" result="shape"/>
<feColorMatrix in="SourceAlpha" type="matrix" values="0 0 0 0 0 0 0 0 0 0 0 0 0 0 0 0 0 0 127 0" result="hardAlpha"/>
<feOffset dy="4"/>
<feGaussianBlur stdDeviation="2"/>
<feComposite in2="hardAlpha" operator="arithmetic" k2="-1" k3="1"/>
<feColorMatrix type="matrix" values="0 0 0 0 0 0 0 0 0 0 0 0 0 0 0 0 0 0 0.25 0"/>
<feBlend mode="normal" in2="shape" result="effect1_innerShadow_24_13"/>
</filter>
</defs>
</svg>
