<svg width="140" height="140" viewBox="0 0 140 140" fill="none" xmlns="http://www.w3.org/2000/svg">
<g filter="url(#filter0_i_24_17)">
<path d="M5.44971 137.612C4.02306 136.153 3.30973 134.296 3.30973 132.041C3.30973 129.786 4.02306 127.929 5.44971 126.47L79.7654 50.463C77.4309 44.8918 77.1066 38.5911 78.7927 31.5608C80.4787 24.5305 84.175 18.2297 89.8817 12.6585C96.7555 5.62823 104.408 1.51616 112.838 0.322333C121.268 -0.871493 128.142 1.25086 133.459 6.68941C138.777 12.1279 140.852 19.1583 139.685 27.7803C138.518 36.4024 134.497 44.2286 127.623 51.2589C122.176 57.0954 116.015 60.8759 109.141 62.6003C102.268 64.3247 96.1071 63.9931 90.6598 61.6054L80.9327 71.554L134.627 126.47C136.053 127.929 136.767 129.786 136.767 132.041C136.767 134.296 136.053 136.153 134.627 137.612C133.07 139.204 131.255 140 129.179 140C127.104 140 125.289 139.204 123.732 137.612L70.0382 83.0943L16.3442 137.612C14.7878 139.204 12.9721 140 10.8969 140C8.8218 140 7.00606 139.204 5.44971 137.612ZM33.8531 75.1354L10.5078 51.2589C4.67154 45.2898 1.26573 38.3258 0.290416 30.367C-0.679708 22.4081 0.780666 14.9135 4.67154 7.88323C5.9685 5.62823 7.91393 4.36808 10.5078 4.10278C13.1018 3.83749 15.3714 4.76602 17.3169 6.88838L58.7547 49.6671L33.8531 75.1354Z" fill="#F45D01"/>
</g>
<defs>
<filter id="filter0_i_24_17" x="0" y="0" width="140" height="144" filterUnits="userSpaceOnUse" color-interpolation-filters="sRGB">
<feFlood flood-opacity="0" result="BackgroundImageFix"/>
<feBlend mode="normal" in="SourceGraphic" in2="BackgroundImageFix" result="shape"/>
<feColorMatrix in="SourceAlpha" type="matrix" values="0 0 0 0 0 0 0 0 0 0 0 0 0 0 0 0 0 0 127 0" result="hardAlpha"/>
<feOffset dy="4"/>
<feGaussianBlur stdDeviation="2"/>
<feComposite in2="hardAlpha" operator="arithmetic" k2="-1" k3="1"/>
<feColorMatrix type="matrix" values="0 0 0 0 0 0 0 0 0 0 0 0 0 0 0 0 0 0 0.25 0"/>
<feBlend mode="normal" in2="shape" result="effect1_innerShadow_24_17"/>
</filter>
</defs>
</svg>
