 <svg  version="1.0" xmlns="http://www.w3.org/2000/svg"  width="140.000000pt" height="140.000000pt" viewBox="0 0 140.000000 140.000000"  preserveAspectRatio="xMidYMid meet">  <g transform="translate(0.000000,140.000000) scale(0.100000,-0.100000)" fill="#f20000" stroke="none"> <path d="M1097 1389 c-135 -32 -266 -158 -302 -293 -16 -60 -17 -99 -3 -187 2 -10 -144 -167 -375 -404 -363 -373 -377 -388 -377 -425 0 -30 6 -43 26 -59 15 -12 36 -21 48 -21 15 -1 107 86 304 287 l283 288 282 -288 c189 -193 289 -288 302 -287 52 1 92 59 74 108 -6 15 -108 126 -227 247 -119 121 -241 245 -269 275 l-53 55 45 52 c43 49 47 51 76 41 17 -6 63 -8 103 -6 161 10 307 142 352 318 51 198 -92 346 -289 299z"/> <path d="M74 1346 c-56 -40 -86 -184 -60 -286 23 -90 57 -137 201 -280 l125 -125 121 121 c92 92 119 125 113 136 -5 9 -102 110 -215 227 -216 221 -240 239 -285 207z"/> </g> </svg> 